<svg xmlns="http://www.w3.org/2000/svg" viewBox="0 0 576 512" class="makeSmaller ml-[1px] mb-[2px]"><path fill="currentColor" d="M400 280v-56c0-8.8-7.2-16-16-16h-94.5c-53.8 0-97.5 43.6-97.5 97.5 0 5.3.7 10.3 1.9 15C175.5 301.9 160 276 160 240c0-70.7 57.3-128 128-128h96c8.8 0 16-7.2 16-16V40c0-4.4 3.6-8 8-8 2.1 0 4 .8 5.5 2.2l128.8 122c1 1 1.6 2.3 1.6 3.8s-.6 2.8-1.6 3.8l-128.8 122c-1.5 1.4-3.5 2.2-5.5 2.2-4.5 0-8-3.6-8-8zm-32-40v40c0 22.1 18 40 40 40 10.2 0 20.1-3.9 27.5-11l128.9-122c7.4-7 11.6-16.8 11.6-27s-4.2-20-11.6-27L435.6 11c-7.4-7-17.3-11-27.5-11C386 0 368 17.9 368 40v40h-80c-88.4 0-160 71.6-160 160 0 93.4 82.8 134.8 100.6 142.6 2.2 1 4.6 1.4 7.1 1.4 11.2 0 20.3-9.1 20.3-20.3v-.9c0-6.8-3.3-13.1-8.3-17.7-9.5-8.6-23.7-24.1-23.7-39.7 0-36.1 29.3-65.5 65.5-65.5H368zM64 64C28.7 64 0 92.7 0 128v320c0 35.3 28.7 64 64 64h320c35.3 0 64-28.7 64-64v-48c0-8.8-7.2-16-16-16s-16 7.2-16 16v48c0 17.7-14.3 32-32 32H64c-17.7 0-32-14.3-32-32V128c0-17.7 14.3-32 32-32h48c8.8 0 16-7.2 16-16s-7.2-16-16-16H64z"></path><defs><linearGradient id="a0.2826074710271178" gradientUnits="userSpaceOnUse"><stop stop-color="#EC008C"></stop><stop offset="1" stop-color="#FC6767"></stop></linearGradient></defs></svg>
