<svg viewBox="0 0 67 87" fill="none" xmlns="http://www.w3.org/2000/svg" class="w-[38px]"><path d="M54.7641 29.9408C54.4229 29.9408 54.4229 29.9408 54.7641 29.9408L30.1993 43.929C30.1993 43.929 30.1993 43.929 29.8582 43.929L28.4935 41.882C28.4935 41.882 28.4935 41.882 28.4935 41.5408L61.2464 22.7761C62.2699 22.0937 62.6111 20.729 61.9288 20.0467L50.6699 0.599609H50.3288L6.99935 25.5055C0.85817 29.2584 -1.53007 37.1055 2.22288 43.5879L25.0817 83.1643V82.8232C23.3758 79.7526 24.7405 75.9996 27.4699 74.2937L42.1405 65.7643C53.0582 59.282 55.4464 58.2584 65.3405 52.4584C66.3641 51.7761 66.7052 50.4114 66.0229 49.729C63.6346 45.2937 57.8346 35.3996 54.7641 29.9408Z" fill="url(#paint0_linear_501_16469)"></path><path d="M27.4996 74.2775C24.429 75.9833 23.276 79.9883 24.9819 83.0589C26.6877 86.1295 30.4407 87.153 33.5113 85.4472L47.8047 77.2189C47.8047 77.2189 47.9531 77.1017 47.8407 76.9178L41.7979 65.9272L27.4996 74.2775Z" fill="url(#paint1_linear_501_16469)"></path><defs><linearGradient id="paint0_linear_501_16469" x1="10.245" y1="57.4048" x2="65.3081" y2="25.5939" gradientUnits="userSpaceOnUse"><stop stop-color="#F857A6"></stop><stop offset="1" stop-color="#FF5858"></stop></linearGradient><linearGradient id="paint1_linear_501_16469" x1="18.3761" y1="72.1751" x2="54.5398" y2="80.7939" gradientUnits="userSpaceOnUse"><stop stop-color="#4E037A"></stop><stop offset="0.3515" stop-color="#2B0B3C"></stop><stop offset="1" stop-color="#9400D3"></stop></linearGradient></defs></svg>
